<mxfile host="app.diagrams.net" modified="2023-10-09T04:41:56.671Z" agent="Mozilla/5.0 (Windows NT 10.0; Win64; x64) AppleWebKit/537.36 (KHTML, like Gecko) Chrome/117.0.0.0 Safari/537.36 Edg/117.0.2045.47" etag="T_4juTtmVyM0jGWNk8kS" version="22.0.4" type="github">
  <diagram id="C5RBs43oDa-KdzZeNtuy" name="Page-1">
    <mxGraphModel dx="1042" dy="665" grid="1" gridSize="10" guides="1" tooltips="1" connect="1" arrows="1" fold="1" page="1" pageScale="1" pageWidth="827" pageHeight="1169" math="0" shadow="0">
      <root>
        <mxCell id="WIyWlLk6GJQsqaUBKTNV-0" />
        <mxCell id="WIyWlLk6GJQsqaUBKTNV-1" parent="WIyWlLk6GJQsqaUBKTNV-0" />
        <mxCell id="DL_dHhUixvhzAePS-ha4-2" value="&lt;font style=&quot;font-size: 18px;&quot;&gt;User Input&lt;/font&gt;" style="rounded=0;whiteSpace=wrap;html=1;" vertex="1" parent="WIyWlLk6GJQsqaUBKTNV-1">
          <mxGeometry x="80" y="40" width="200" height="40" as="geometry" />
        </mxCell>
        <mxCell id="DL_dHhUixvhzAePS-ha4-3" value="The user will input a list of patients with fields like - patient data, admitting hospital. It will also include liver harvesting data like - time of liver harvest, hospital where the harvest was done, etc." style="rounded=0;whiteSpace=wrap;html=1;" vertex="1" parent="WIyWlLk6GJQsqaUBKTNV-1">
          <mxGeometry x="80" y="80" width="200" height="120" as="geometry" />
        </mxCell>
        <mxCell id="DL_dHhUixvhzAePS-ha4-4" value="" style="endArrow=classic;html=1;rounded=0;exitX=0.5;exitY=1;exitDx=0;exitDy=0;" edge="1" parent="WIyWlLk6GJQsqaUBKTNV-1" source="DL_dHhUixvhzAePS-ha4-3" target="DL_dHhUixvhzAePS-ha4-5">
          <mxGeometry width="50" height="50" relative="1" as="geometry">
            <mxPoint x="280" y="120" as="sourcePoint" />
            <mxPoint x="180" y="280" as="targetPoint" />
          </mxGeometry>
        </mxCell>
        <mxCell id="DL_dHhUixvhzAePS-ha4-5" value="&lt;font style=&quot;font-size: 18px;&quot;&gt;Program&lt;/font&gt;" style="rounded=0;whiteSpace=wrap;html=1;" vertex="1" parent="WIyWlLk6GJQsqaUBKTNV-1">
          <mxGeometry x="80" y="280" width="200" height="40" as="geometry" />
        </mxCell>
        <mxCell id="DL_dHhUixvhzAePS-ha4-6" value="The program will simulate the way liver is donated to the patient according to the set standards." style="rounded=0;whiteSpace=wrap;html=1;" vertex="1" parent="WIyWlLk6GJQsqaUBKTNV-1">
          <mxGeometry x="80" y="320" width="200" height="120" as="geometry" />
        </mxCell>
        <mxCell id="DL_dHhUixvhzAePS-ha4-7" value="" style="endArrow=classic;html=1;rounded=0;exitX=0.5;exitY=1;exitDx=0;exitDy=0;" edge="1" parent="WIyWlLk6GJQsqaUBKTNV-1" source="DL_dHhUixvhzAePS-ha4-6" target="DL_dHhUixvhzAePS-ha4-8">
          <mxGeometry width="50" height="50" relative="1" as="geometry">
            <mxPoint x="390" y="360" as="sourcePoint" />
            <mxPoint x="180" y="520" as="targetPoint" />
          </mxGeometry>
        </mxCell>
        <mxCell id="DL_dHhUixvhzAePS-ha4-8" value="&lt;font style=&quot;font-size: 19px;&quot;&gt;Output&lt;/font&gt;" style="rounded=0;whiteSpace=wrap;html=1;" vertex="1" parent="WIyWlLk6GJQsqaUBKTNV-1">
          <mxGeometry x="80" y="520" width="200" height="40" as="geometry" />
        </mxCell>
        <mxCell id="DL_dHhUixvhzAePS-ha4-9" value="The output will print which liver is given to which patient in which hospital.&amp;nbsp;" style="rounded=0;whiteSpace=wrap;html=1;" vertex="1" parent="WIyWlLk6GJQsqaUBKTNV-1">
          <mxGeometry x="80" y="560" width="200" height="80" as="geometry" />
        </mxCell>
      </root>
    </mxGraphModel>
  </diagram>
</mxfile>
